<?xml version="1.0" encoding="iso-8859-1"?>
<!-- Generator: Adobe Illustrator 19.0.0, SVG Export Plug-In . SVG Version: 6.00 Build 0)  -->
<svg version="1.1" id="Layer_1" xmlns="http://www.w3.org/2000/svg" xmlns:xlink="http://www.w3.org/1999/xlink" x="0px" y="0px"
	 viewBox="0 0 512 512" style="enable-background:new 0 0 512 512;" xml:space="preserve">
<path style="fill:#FFCA28;" d="M448,438v16c0,30.8-25.2,54-56,54H120c-30.8,0-56-23.2-56-54v-18h4v-4h375.6l0.4-196h4V438z"/>
<polygon style="fill:#FFFFFF;" points="68,236 444,236 443.6,432 68,432 "/>
<path style="fill:#FFCA28;" d="M444,236H68v198v2h-4V234v-16c0-30.8,25.2-58,56-58h73.2h125.2H392c30.8,0,56,27.2,56,58v16v2H444z"
	/>
<path style="fill:#FFE0B2;" d="M73.2,153.6c5.2-6.8,12-20,14.4-35.6l4-10H420c1.6,0,2.8,0.4,4-0.8c0,15.2,4.4,28,9.2,37.2l3.2,13.6
	c-4,0-10.8-2.8-18.4-6.8c-10.4-8.4-17.6-19.2-37.2-19.2c-19.2,0-26.4,10.4-36.8,18.8c-8.4,4.4-16.4,8-22.4,8c-3.2,0-5.2,0-6.4,0
	c0,0-1.6,0.8-3.2,1.2c-3.6-0.4-6.8-1.6-9.6-2.4c-3.2-2.4-7.6-5.2-12.4-8.4c-9.2-8-16.8-16.8-34.4-16.8c-22.8,0-29.2,15.2-43.2,23.2
	l0,0c-5.2,2.4-9.6,4-13.6,4c-3.6,0-5.2,0-6,0c-16-5.6-15.2-5.6-27.2-11.2c-1.2-0.4-2.4-1.2-3.6-1.6c-8-7.2-16-14.8-32-14.8
	c-1.6,0-3.2,0-4.8,0.4h-0.4c-0.4,0-0.8,0-1.2,0.4h-0.4c-10.4,1.6-16.8,7.2-23.2,12.8c-5.6,4-11.2,8.4-14.8,11.2
	c-4,2-8.8,3.2-14.8,3.6L73.2,153.6z"/>
<path style="fill:#FFCA28;" d="M428,4c8.8,0,16,7.2,16,16v36c0,8.8-7.2,16-16,16l0,0H144h-32H84h-0.4C74.8,72,68,64.8,68,56V20
	c0-8.8,6.8-16,15.6-16H428z"/>
<path style="fill:#FFB300;" d="M428,72v26.8c0,3.2,0,7.2-4,9.2l0,0l-332.4,2c-1.2,0-2-0.4-3.2-1.2c-2.8-2-4.4-6.4-4.4-10V72h28h32
	H428L428,72z"/>
<path d="M89.6,112.4c-1.2,0-2-0.4-3.2-1.2c-3.6-2.8-6-7.2-6-12.4V72c0-2.4,1.6-4,4-4s4,1.6,4,4v26.8c0,2,0.8,4,2,5.2
	c0.4,0,0.8,0,1.2,0h329.2c0.4,0,0.4,0,0.8,0c1.2-1.2,2.8-2.8,2.8-5.2V72c0-2.4,1.6-4,4-4s4,1.6,4,4v26.8c0,4-2,8.4-5.6,11.2
	c-2,2-4.4,2-6,1.6H420H91.6C90.8,112,90.4,112.4,89.6,112.4z"/>
<path d="M428,76H144c-2.4,0-4-1.6-4-4s1.6-4,4-4h284c6.8,0,12-5.2,12-12V20c0-6.8-5.6-12-12-12H83.6C77.2,8,72,13.2,72,20v36
	c0,6.8,5.2,12,11.6,12H112c2.4,0,4,1.6,4,4s-1.6,4-4,4H83.6C72.8,76,64,67.2,64,56V20C64,8.8,72.8,0,83.6,0H428c11.2,0,20,8.8,20,20
	v36C448,67.2,439.2,76,428,76z"/>
<path d="M392,512H120c-33.6,0-60-25.6-60-58V218c0-33.6,27.6-62,60-62h272c32.4,0,60,28.4,60,62v236C452,486.4,425.6,512,392,512z
	 M120,164c-28,0-52,24.8-52,54v236c0,28,22.8,50,52,50h272c29.2,0,52-22,52-50V218c0-29.2-24-54-52-54H120z"/>
<path d="M448,236H140c-2.4,0-4-1.6-4-4s1.6-4,4-4h308c2.4,0,4,1.6,4,4S450.4,236,448,236z"/>
<path d="M448,440H140c-2.4,0-4-1.6-4-4s1.6-4,4-4h308c2.4,0,4,1.6,4,4S450.4,440,448,440z"/>
<path d="M108,236H64c-2.4,0-4-1.6-4-4s1.6-4,4-4h44c2.4,0,4,1.6,4,4S110.4,236,108,236z"/>
<path d="M108,440H64c-2.4,0-4-1.6-4-4s1.6-4,4-4h44c2.4,0,4,1.6,4,4S110.4,440,108,440z"/>
<path d="M68,164.4c-1.6,0-3.2-0.8-3.6-2.4c-0.8-1.6-0.4-3.2,0.8-4.4c0,0,2-2,4.8-6c4-5.6,11.2-16.8,13.6-32.8
	c0.4-3.2,0.4-6.8,0.4-9.6v-0.8h8v0.8c0,3.2,0,7.2-0.8,10.8c-2.4,16.8-10,29.2-14.4,35.6c2.4-0.4,4.4-1.2,6.4-2.4
	c4.8-2.4,8.8-6,13.2-9.6l0.8-0.8c6.8-6,14-11.6,25.2-13.6h0.4c0.4,0,0.8,0,1.2-0.4c0.4,0,0.4,0,0.8,0c1.6,0,3.2-0.4,5.2-0.4
	c17.2,0,26,8,34,15.2l0.4,0.4c6.8,6,14,12.4,28,12.4c6.8,0,12.4-1.2,17.6-4.4l0,0l0,0c4-2.4,7.6-5.2,11.2-8.8
	c8-7.2,16.8-15.2,34-15.2s26,8,34,15.2c1.2,0.8,2,2,3.2,2.8c3.2,2.8,6.8,5.6,11.2,7.6c2.8,1.2,5.6,2,8.4,2.4c2,0.4,3.6,0.4,5.6,0.4
	c11.2,0,18-4,23.6-8.8c1.6-1.6,3.6-2.8,5.2-4.4c8-7.2,16.8-15.2,34-15.2s26,8,34,15.2c2,1.6,3.6,3.2,5.6,4.8c5.2,4.4,11.6,8,22.8,8
	c2.4,0,4,1.6,4,4s-1.6,4-4,4c-13.6,0-22-5.2-28-10c-2-1.6-4-3.6-6-5.2c-7.6-7.2-14.4-13.2-28.4-13.2s-20.8,6-28.8,13.2
	c-1.6,1.6-3.6,3.2-5.6,4.8c-6.4,5.2-14.8,10.4-28.4,10.4c-2.4,0-4.8,0-6.8-0.4c-3.6-0.4-7.2-1.6-10.4-2.8c-5.6-2.4-10-6-13.6-8.8
	c-1.2-0.8-2-2-3.2-2.8C276,142,269.2,136,255.2,136s-20.8,6-28.8,13.2c-3.6,3.2-7.6,6.8-12.4,9.6c0,0,0,0-0.4,0
	c-6.4,3.6-13.6,5.6-21.6,5.6c-17.2,0-26-8-33.6-14.8l-0.4-0.4c-7.6-7.2-14.4-13.2-28.8-13.2c-1.6,0-3.2,0-4.4,0.4h-0.4
	c-0.4,0-0.8,0-1.2,0c0,0,0,0-0.4,0h-0.4c-9.2,1.6-14.8,6-21.2,11.6l-0.8,0.8c-4.4,4-8.8,8-14.8,10.8c-5.2,2.4-10.4,3.6-16.4,4
	C69.6,164,68.8,164.4,68,164.4z"/>
<path d="M444,164c-1.2,0-2-0.4-2.8-1.2c-0.4-0.4-6-6-11.2-16.4c-4.4-8.4-9.6-21.6-9.6-38.4c0-2.4,1.6-4,4-4s4,1.6,4,4
	c0,15.2,4.8,27.2,8.8,34.8c4.8,9.2,10,14.4,10,14.4c1.6,1.6,1.6,4,0,5.6C446,163.6,444.8,164,444,164z"/>
<g>
</g>
<g>
</g>
<g>
</g>
<g>
</g>
<g>
</g>
<g>
</g>
<g>
</g>
<g>
</g>
<g>
</g>
<g>
</g>
<g>
</g>
<g>
</g>
<g>
</g>
<g>
</g>
<g>
</g>
</svg>
